<?xml version="1.0" encoding="UTF-8" standalone="no"?>
<!-- Generator: Gravit.io -->
<svg xmlns="http://www.w3.org/2000/svg" xmlns:xlink="http://www.w3.org/1999/xlink" style="isolation:isolate" viewBox="0 0 132 94" width="132pt" height="94pt"><defs><clipPath id="_clipPath_RxOD1p6di52saavSNbrShCFdmR0ww54M"><rect width="132" height="94"/></clipPath></defs><g clip-path="url(#_clipPath_RxOD1p6di52saavSNbrShCFdmR0ww54M)"><g><g><path d="M 14.917 10 L 117.083 10 C 119.797 10 122 12.203 122 14.916 L 122 44.414 C 122 47.127 119.797 49.33 117.083 49.33 L 14.917 49.33 C 12.203 49.33 10 47.127 10 44.414 L 10 14.916 C 10 12.203 12.203 10 14.917 10 Z" style="stroke:none;fill:#FFFFFF;stroke-miterlimit:10;"/><path d="M 14.917 10 L 117.083 10 C 119.797 10 122 12.203 122 14.916 L 122 44.414 C 122 47.127 119.797 49.33 117.083 49.33 L 14.917 49.33 C 12.203 49.33 10 47.127 10 44.414 L 10 14.916 C 10 12.203 12.203 10 14.917 10 Z" style="fill:none;stroke:#5E5E5E;stroke-width:2;stroke-linejoin:round;stroke-miterlimit:2;"/><clipPath id="_clipPath_W0Esg5vIFpv2OdEIrrhBFesQuzXyB8TY"><path d="M 14.917 10 L 117.083 10 C 119.797 10 122 12.203 122 14.916 L 122 44.414 C 122 47.127 119.797 49.33 117.083 49.33 L 14.917 49.33 C 12.203 49.33 10 47.127 10 44.414 L 10 14.916 C 10 12.203 12.203 10 14.917 10 Z" style="stroke:none;fill:#FFFFFF;stroke-miterlimit:10;"/><path d="M 14.917 10 L 117.083 10 C 119.797 10 122 12.203 122 14.916 L 122 44.414 C 122 47.127 119.797 49.33 117.083 49.33 L 14.917 49.33 C 12.203 49.33 10 47.127 10 44.414 L 10 14.916 C 10 12.203 12.203 10 14.917 10 Z" style="fill:none;stroke:#5E5E5E;stroke-width:2;stroke-linejoin:round;stroke-miterlimit:2;"/></clipPath><g clip-path="url(#_clipPath_W0Esg5vIFpv2OdEIrrhBFesQuzXyB8TY)"><path d="M 19.107 14 L 117.223 14 C 119.308 14 121 15.692 121 17.776 L 121 44.554 C 121 46.638 119.308 48.33 117.223 48.33 L 19.107 48.33 C 17.022 48.33 15.33 46.638 15.33 44.554 L 15.33 17.776 C 15.33 15.692 17.022 14 19.107 14 Z" style="stroke:none;fill:#A2CCF6;stroke-linejoin:round;stroke-miterlimit:2;"/><g clip-path="url(#_clipPath_qLm8q2cfIc5sFlJXQu1fFhHDOeGHw7uI)"><text transform="matrix(1,0,0,1,27,36.137)" style="font-family:'Comfortaa';font-weight:400;font-size:20px;font-style:normal;fill:#000000;stroke:none;">ABOUT</text></g><defs><clipPath id="_clipPath_qLm8q2cfIc5sFlJXQu1fFhHDOeGHw7uI"><rect x="0" y="0" width="78" height="22.3" transform="matrix(1,0,0,1,27,18.517)"/></clipPath></defs></g></g><g><path d="M 37.799 44.67 L 108.541 44.67 C 110.82 44.67 112.67 46.52 112.67 48.799 L 112.67 79.871 C 112.67 82.15 110.82 84 108.541 84 L 37.799 84 C 35.52 84 33.67 82.15 33.67 79.871 L 33.67 48.799 C 33.67 46.52 35.52 44.67 37.799 44.67 Z" style="stroke:none;fill:#FFFFFF;stroke-linejoin:round;stroke-miterlimit:2;"/><path d="M 37.799 44.67 L 108.541 44.67 C 110.82 44.67 112.67 46.52 112.67 48.799 L 112.67 79.871 C 112.67 82.15 110.82 84 108.541 84 L 37.799 84 C 35.52 84 33.67 82.15 33.67 79.871 L 33.67 48.799 C 33.67 46.52 35.52 44.67 37.799 44.67 Z" style="fill:none;stroke:#5E5E5E;stroke-width:2;stroke-linejoin:round;stroke-miterlimit:2;"/><clipPath id="_clipPath_FVIZupUU19YZM8bZbjGSDi0L2OXMsTUB"><path d="M 37.799 44.67 L 108.541 44.67 C 110.82 44.67 112.67 46.52 112.67 48.799 L 112.67 79.871 C 112.67 82.15 110.82 84 108.541 84 L 37.799 84 C 35.52 84 33.67 82.15 33.67 79.871 L 33.67 48.799 C 33.67 46.52 35.52 44.67 37.799 44.67 Z" style="stroke:none;fill:#FFFFFF;stroke-linejoin:round;stroke-miterlimit:2;"/><path d="M 37.799 44.67 L 108.541 44.67 C 110.82 44.67 112.67 46.52 112.67 48.799 L 112.67 79.871 C 112.67 82.15 110.82 84 108.541 84 L 37.799 84 C 35.52 84 33.67 82.15 33.67 79.871 L 33.67 48.799 C 33.67 46.52 35.52 44.67 37.799 44.67 Z" style="fill:none;stroke:#5E5E5E;stroke-width:2;stroke-linejoin:round;stroke-miterlimit:2;"/></clipPath><g clip-path="url(#_clipPath_FVIZupUU19YZM8bZbjGSDi0L2OXMsTUB)"><path d="M 42.079 48.67 L 108.721 48.67 C 110.901 48.67 112.67 50.439 112.67 52.618 L 112.67 79.052 C 112.67 81.231 110.901 83 108.721 83 L 42.079 83 C 39.899 83 38.13 81.231 38.13 79.052 L 38.13 52.618 C 38.13 50.439 39.899 48.67 42.079 48.67 Z" style="stroke:none;fill:#E6EFF8;stroke-linejoin:round;stroke-miterlimit:2;"/><g clip-path="url(#_clipPath_cDlEPNgsQjgF2QKdiMUAA01ESgaX0V9k)"><text transform="matrix(1,0,0,1,57.167,73.803)" style="font-family:'Comfortaa';font-weight:400;font-size:20px;font-style:normal;fill:#000000;stroke:none;">US</text></g><defs><clipPath id="_clipPath_cDlEPNgsQjgF2QKdiMUAA01ESgaX0V9k"><rect x="0" y="0" width="32" height="22.3" transform="matrix(1,0,0,1,57.167,56.183)"/></clipPath></defs></g></g></g></g></svg>