<?xml version="1.0" encoding="UTF-8" standalone="no"?>
<!-- Generator: Gravit.io -->
<svg xmlns="http://www.w3.org/2000/svg" xmlns:xlink="http://www.w3.org/1999/xlink" style="isolation:isolate" viewBox="0 0 41.235 47.405" width="41.235pt" height="47.405pt"><defs><clipPath id="_clipPath_Hh1r1hY5dcWX5UgeRIWdhl2qfOlkrEYi"><rect width="41.235" height="47.405"/></clipPath></defs><g clip-path="url(#_clipPath_Hh1r1hY5dcWX5UgeRIWdhl2qfOlkrEYi)"><path d=" M 21.134 0.492 C 17.987 1.931 17.197 6.054 19.606 8.464 C 21.904 10.762 25.229 10.631 27.168 8.166 C 30.453 3.989 25.967 -1.716 21.134 0.492 Z  M 4.51 7.844 C 4.176 8.22 2.979 10.671 1.85 13.29 C -0.606 18.99 -0.421 20.356 2.749 19.931 C 3.803 19.79 4.627 19.913 5.219 20.3 L 6.106 20.882 L 5.364 22.517 C 3.64 26.315 4.399 27.794 10.173 31.887 L 13.827 34.477 L 13.332 38.495 C 12.433 45.792 12.653 46.575 15.612 46.601 C 17.796 46.62 18.025 46.118 19.271 38.598 L 20.421 31.654 L 16.65 28.098 L 12.879 24.543 L 14.482 22.516 C 16.377 20.121 16.714 20.186 16.714 22.944 C 16.714 25.303 16.767 25.38 20.985 29.164 C 24.024 31.891 25.112 32.283 26.224 31.055 C 27.329 29.833 26.968 28.679 24.519 25.611 C 21.91 22.343 22.033 22.692 21.409 16.748 C 20.718 10.157 20.364 9.833 12.031 8.147 C 6.249 6.977 5.312 6.94 4.51 7.844 Z  M 9.234 13.058 C 10.741 13.583 10.789 13.254 8.757 16.284 C 7.129 18.713 5.386 19.251 5.386 17.325 C 5.386 17.061 7.801 12.668 7.964 12.637 C 7.986 12.632 8.557 12.822 9.234 13.058 Z  M 4.095 31.477 C -0.724 43.094 -0.456 42.127 0.727 43.631 C 2.633 46.054 4.276 44.886 7.289 38.969 C 9.727 34.181 9.75 34.658 6.982 32.648 C 4.446 30.808 4.383 30.783 4.095 31.477 Z  M 28.238 32.941 C 27.377 33.892 27.192 33.708 32.144 36.829 C 35.296 38.816 37.705 40.352 39.321 41.406 C 39.401 41.459 38.996 42.677 38.421 44.114 C 37.357 46.771 37.489 48.079 38.718 47.059 C 39.427 46.47 41.465 40.907 41.213 40.248 C 41.067 39.869 30.48 32.817 29.202 32.248 C 29.07 32.189 28.636 32.501 28.238 32.941 Z  M 31.225 39.025 C 30.731 40.109 30.913 40.754 31.713 40.754 C 32.471 40.754 33.164 39.001 32.621 38.458 C 31.975 37.812 31.733 37.91 31.225 39.025 Z  M 33.549 40.812 C 32.964 42.491 33.01 43.098 33.725 43.098 C 34.543 43.098 35.536 40.726 34.992 40.07 C 34.358 39.306 34.012 39.484 33.549 40.812 Z  M 35.792 42.929 C 35.234 44.482 35.225 44.743 35.724 44.934 C 36.805 45.349 38.363 42.126 37.382 41.505 C 36.536 40.97 36.478 41.022 35.792 42.929 Z " fill-rule="evenodd" fill="#3E2723"/></g></svg>