<?xml version="1.0" encoding="UTF-8" standalone="no"?>
<!-- Generator: Gravit.io -->
<svg xmlns="http://www.w3.org/2000/svg" xmlns:xlink="http://www.w3.org/1999/xlink" style="isolation:isolate" viewBox="0 0 48.978 33.846" width="48.978pt" height="33.846pt"><defs><clipPath id="_clipPath_supeSXK591t2hw54WVkKTuRKtanl2LwB"><rect width="48.978" height="33.846"/></clipPath></defs><g clip-path="url(#_clipPath_supeSXK591t2hw54WVkKTuRKtanl2LwB)"><path d=" M 23.927 0.707 C 20.617 1.85 17.163 5.098 16.517 7.675 C 16.361 8.296 16.005 8.577 15.375 8.577 C 13.924 8.577 13.708 9.498 14.299 13.186 C 14.595 15.033 14.875 16.58 14.922 16.623 C 15.028 16.72 23.739 19.091 29.198 20.509 L 33.232 21.557 L 34.276 20.58 C 36.718 18.297 40.06 17.491 42.937 18.492 C 43.904 18.828 44.74 18.976 44.794 18.82 C 44.848 18.665 45.79 16.956 46.888 15.023 C 49.278 10.813 49.603 8.843 47.94 8.651 C 47.147 8.56 46.785 8.216 46.468 7.256 C 45.54 4.443 42.754 2.682 38.641 2.307 C 36.858 2.144 34.793 1.64 33.367 1.021 C 30.517 -0.218 26.946 -0.337 23.927 0.707 Z  M 32 2.355 C 32.752 2.544 33.977 3.118 34.723 3.63 C 35.849 4.403 36.294 4.501 37.353 4.209 C 40.135 3.44 44.868 6 44.888 8.284 C 44.889 8.446 38.914 8.577 31.609 8.577 C 17.118 8.577 17.45 8.636 19.207 6.385 C 22.429 2.256 26.505 0.972 32 2.355 Z  M 0.162 15.612 C -0.362 16.46 0.435 17.552 1.848 17.922 C 2.64 18.13 5.75 18.95 8.758 19.745 C 11.766 20.54 14.622 21.273 15.105 21.375 C 15.589 21.476 15.986 21.758 15.988 22.002 C 16.085 34.682 19.661 37.109 26.726 29.291 C 30.463 25.157 29.383 25.277 39.14 27.913 C 47.994 30.306 48.234 30.342 48.73 29.378 C 49.161 28.541 48.909 27.718 48.223 27.718 C 47.923 27.718 47.611 27.033 47.464 26.052 C 46.572 20.103 39.149 17.921 35.179 22.442 L 34.025 23.756 L 31.743 23.165 C 30.488 22.84 23.35 20.919 15.88 18.896 C 2.325 15.225 0.621 14.869 0.162 15.612 Z  M 23.504 23.671 C 25.814 24.284 27.66 24.912 27.606 25.067 C 26.6 27.957 19.158 33.263 19.095 31.136 C 19.087 30.867 18.857 28.841 18.585 26.633 C 18.088 22.599 18.124 22.096 18.89 22.395 C 19.118 22.485 21.194 23.059 23.504 23.671 Z  M 42.414 23.786 C 43.489 24.442 44.446 25.949 44.044 26.351 C 43.841 26.554 38.11 24.957 37.719 24.588 C 36.525 23.466 40.715 22.75 42.414 23.786 Z  M 33.562 28.679 C 33.562 32.725 40.784 35.442 44.501 32.795 L 45.819 31.857 L 44.476 31.306 C 43.737 31.002 42.371 30.768 41.439 30.785 C 40.375 30.804 39.069 30.47 37.924 29.886 C 36.061 28.936 33.562 28.244 33.562 28.679 Z " fill-rule="evenodd" fill="#3E2723"/></g></svg>