<?xml version="1.0" encoding="UTF-8" standalone="no"?>
<!-- Generator: Gravit.io -->
<svg xmlns="http://www.w3.org/2000/svg" xmlns:xlink="http://www.w3.org/1999/xlink" style="isolation:isolate" viewBox="0 0 39.776 43.675" width="39.776pt" height="43.675pt"><defs><clipPath id="_clipPath_9sYAUcOxqGIfx7mQMPZqQFJuwsCCLpte"><rect width="39.776" height="43.675"/></clipPath></defs><g clip-path="url(#_clipPath_9sYAUcOxqGIfx7mQMPZqQFJuwsCCLpte)"><path d=" M 11.727 3.141 C 12.098 9.553 17.269 15.354 22.614 15.354 C 23.292 15.354 24.152 16.639 24.152 17.652 C 24.152 17.813 23.183 18.347 21.998 18.838 C 20.813 19.329 19.627 20.038 19.361 20.413 C 19.096 20.788 18.237 21.214 17.453 21.36 C 15.315 21.757 12.433 24.692 12.433 26.472 C 12.433 27.144 14.066 26.549 14.363 25.769 C 14.873 24.427 17.019 22.776 18.255 22.776 C 18.888 22.776 19.696 22.385 20.225 21.822 C 23.371 18.473 29.224 19.353 30.804 23.411 C 31.013 23.948 31.611 24.332 32.499 24.499 C 34.017 24.783 35.871 26.652 35.871 27.897 C 35.871 28.647 36.86 29.339 37.302 28.897 C 38.392 27.807 35.439 23.49 33.257 22.985 C 32.611 22.836 31.748 22.139 31.157 21.289 C 30.243 19.974 28.642 18.891 26.744 18.304 C 25.311 17.861 26.896 16.366 29.09 16.092 C 34.089 15.466 37.828 11.357 38.289 5.979 L 38.407 4.612 L 36.02 4.676 C 31.736 4.791 28.13 7.055 26.165 10.862 L 25.359 12.425 L 25.341 11.225 C 25.266 6 19.999 0.993 13.812 0.266 L 11.545 0 L 11.727 3.141 Z  M 24.41 12.448 C 25.426 14.392 26.105 15.104 26.105 14.225 C 26.105 13.743 29.61 9.886 30.048 9.886 C 30.741 9.886 30.385 10.843 29.255 12.015 C 28.625 12.67 27.502 14.217 26.761 15.454 L 25.412 17.701 L 24.06 14.868 C 23.317 13.309 22.083 11.218 21.317 10.221 C 20.258 8.841 20.034 8.299 20.379 7.948 C 20.963 7.354 22.847 9.458 24.41 12.448 Z  M 25.715 22.386 C 25.715 22.889 25.912 23.166 26.203 23.069 C 26.471 22.98 26.691 22.672 26.691 22.386 C 26.691 22.099 26.471 21.792 26.203 21.702 C 25.912 21.605 25.715 21.882 25.715 22.386 Z  M 16.905 25.154 C 16.76 25.388 16.822 25.759 17.043 25.979 C 17.536 26.472 18.293 26.056 18.293 25.292 C 18.293 24.635 17.287 24.534 16.905 25.154 Z  M 23.859 24.99 C 23.149 25.274 23.261 26.557 24.022 26.849 C 24.836 27.161 25.44 26.594 25.263 25.682 C 25.117 24.928 24.623 24.684 23.859 24.99 Z  M 30.862 27.68 C 31.038 28.528 31.732 28.58 31.89 27.757 C 31.973 27.329 31.781 27.073 31.379 27.073 C 31.003 27.073 30.788 27.326 30.862 27.68 Z  M 3.95 30.971 L 0 33.306 L 1.822 37.416 L 3.644 41.525 L 6.613 41.526 C 8.599 41.526 10.928 41.881 13.645 42.596 C 17.341 43.57 18.336 43.666 24.69 43.67 L 31.674 43.675 L 33.806 41.331 C 40.603 33.859 40.99 32.947 37.985 31.478 C 35.784 30.402 35.694 30.442 32.92 33.772 L 30.622 36.531 L 26.117 36.254 C 22.152 36.01 19.074 35.339 19.074 34.719 C 19.074 34.606 20.998 34.623 23.35 34.758 C 28.578 35.057 29.621 34.632 29.621 32.203 C 29.621 29.678 29.084 29.466 21.581 29.03 C 17.946 28.819 13.381 28.644 11.436 28.641 L 7.899 28.636 L 3.95 30.971 Z " fill-rule="evenodd" fill="#3E2723"/></g></svg>