<?xml version="1.0" encoding="UTF-8" standalone="no"?>
<!-- Generator: Gravit.io -->
<svg xmlns="http://www.w3.org/2000/svg" xmlns:xlink="http://www.w3.org/1999/xlink" style="isolation:isolate" viewBox="0 0 48.506 30.693" width="48.506pt" height="30.693pt"><defs><clipPath id="_clipPath_vDVWfH8X9hD5OojE80XiYxHf68mVNmy9"><rect width="48.506" height="30.693"/></clipPath></defs><g clip-path="url(#_clipPath_vDVWfH8X9hD5OojE80XiYxHf68mVNmy9)"><path d=" M 21.463 2.685 C 18.576 5.594 18.225 6.738 20.15 6.96 C 20.849 7.041 21.305 6.87 21.458 6.472 C 21.789 5.608 22.505 5.711 23.494 6.764 C 24.27 7.59 24.343 8.078 24.343 12.428 L 24.343 17.188 L 20.858 17.188 L 17.372 17.188 L 15.986 14.972 L 14.6 12.756 L 15.468 12.324 C 16.073 12.022 16.336 11.539 16.336 10.731 L 16.336 9.571 L 11.965 9.46 L 7.595 9.35 L 7.009 7.312 C 6.688 6.191 6.306 4.789 6.161 4.196 C 5.83 2.843 4.264 2.334 3.324 3.274 C 2.729 3.869 2.747 4.164 3.562 7.329 C 4.668 11.618 4.733 11.328 2.664 11.328 L 0.906 11.328 L 0.906 13.282 L 0.906 15.235 L 2.859 15.235 C 5.325 15.235 5.528 16.201 3.36 17.611 C -2.703 21.553 -0.042 30.593 7.194 30.638 C 10.945 30.661 14.187 27.538 14.187 23.9 L 14.187 22.657 L 24.148 22.657 L 34.109 22.657 L 34.109 23.575 C 34.109 28.052 38.768 31.634 43.083 30.472 C 47.683 29.233 50.08 23.235 47.358 19.774 C 46.76 19.014 46.609 18.185 46.609 15.661 L 46.609 12.5 L 45.025 12.5 L 43.441 12.5 L 43.56 10.645 C 43.674 8.874 43.728 8.795 44.754 8.915 C 46.699 9.142 45.389 6.834 42.826 5.517 C 42.275 5.234 39.076 5.078 33.805 5.078 C 24.629 5.078 23.169 4.691 25.093 2.766 C 26.259 1.6 25.778 0 24.261 0 C 24.187 0 22.928 1.208 21.463 2.685 Z  M 8.244 20.342 C 11.868 21.605 11.019 26.953 7.195 26.953 C 3.671 26.953 2.334 22.508 5.311 20.693 C 6.787 19.793 6.698 19.803 8.244 20.342 Z  M 43.777 21.326 C 45.699 23.477 44.327 26.953 41.555 26.953 C 39.312 26.953 38.015 25.751 38.015 23.673 C 38.015 20.312 41.575 18.862 43.777 21.326 Z  M 15.898 27.155 L 15.07 29.297 L 24.199 29.297 C 32.844 29.297 33.805 29.188 32.984 28.301 C 32.795 28.097 32.43 27.271 32.173 26.465 L 31.705 25 L 24.215 25.007 L 16.726 25.014 L 15.898 27.155 Z " fill-rule="evenodd" fill="#3E2723"/></g></svg>