<?xml version="1.0" encoding="UTF-8" standalone="no"?>
<!-- Generator: Gravit.io -->
<svg xmlns="http://www.w3.org/2000/svg" xmlns:xlink="http://www.w3.org/1999/xlink" style="isolation:isolate" viewBox="0 0 44.02 44.498" width="44.02pt" height="44.498pt"><defs><clipPath id="_clipPath_5wPCIzg1ZpvVJIttZhN3Yn7SexD9U6GG"><rect width="44.02" height="44.498"/></clipPath></defs><g clip-path="url(#_clipPath_5wPCIzg1ZpvVJIttZhN3Yn7SexD9U6GG)"><path d=" M 34.358 1.229 C 33.49 2.164 31.283 4.683 29.453 6.826 L 26.126 10.722 L 27.749 11.643 C 28.641 12.149 29.868 13.164 30.474 13.899 C 33.12 17.103 36.785 11.759 36.79 4.687 C 36.794 -0.43 36.408 -0.98 34.358 1.229 Z  M 41.262 6.933 C 39.776 11.517 36.658 16.094 34.371 17.05 C 32.288 17.92 31.585 17.695 29.161 15.383 C 26.396 12.746 24.11 12.157 22.179 13.585 C 21.582 14.026 20.232 14.513 19.178 14.667 C 13.138 15.548 4.344 19.942 1.001 23.749 C -1.894 27.047 2.083 30.684 5.432 27.802 C 11.745 22.368 19.617 19.58 22.387 21.798 C 31.176 28.835 44.02 21.221 44.02 8.974 C 44.02 5.574 42.151 4.191 41.262 6.933 Z  M 27.231 17.202 C 27.769 18.207 27.401 19.408 26.389 19.95 C 24.711 20.848 22.824 18.227 24.176 16.875 C 24.938 16.113 26.752 16.307 27.231 17.202 Z  M 24.761 26.029 C 24.611 26.179 24.489 26.702 24.489 27.19 C 24.489 28.679 22.534 33.634 20.828 36.47 C 19.941 37.945 18.998 39.527 18.733 39.986 C 16.944 43.078 21.095 46.125 23.525 43.504 C 25.766 41.088 28.995 34.546 30.152 30.079 C 31.032 26.684 31.042 26.705 28.46 26.436 C 27.207 26.305 25.924 26.098 25.608 25.977 C 25.292 25.856 24.911 25.879 24.761 26.029 Z " fill-rule="evenodd" fill="#3E2723"/></g></svg>