<?xml version="1.0" encoding="UTF-8" standalone="no"?>
<!-- Generator: Gravit.io -->
<svg xmlns="http://www.w3.org/2000/svg" xmlns:xlink="http://www.w3.org/1999/xlink" style="isolation:isolate" viewBox="0 0 132 94" width="132pt" height="94pt"><defs><clipPath id="_clipPath_ku8ZADD96wP58vPet2zab7UHSW13VLPs"><rect width="132" height="94"/></clipPath></defs><g clip-path="url(#_clipPath_ku8ZADD96wP58vPet2zab7UHSW13VLPs)"><g><g><path d="M 14.917 45 L 117.083 45 C 119.797 45 122 47.203 122 49.916 L 122 79.414 C 122 82.127 119.797 84.33 117.083 84.33 L 14.917 84.33 C 12.203 84.33 10 82.127 10 79.414 L 10 49.916 C 10 47.203 12.203 45 14.917 45 Z" style="stroke:none;fill:#FFFFFF;stroke-miterlimit:10;"/><path d="M 14.917 45 L 117.083 45 C 119.797 45 122 47.203 122 49.916 L 122 79.414 C 122 82.127 119.797 84.33 117.083 84.33 L 14.917 84.33 C 12.203 84.33 10 82.127 10 79.414 L 10 49.916 C 10 47.203 12.203 45 14.917 45 Z" style="fill:none;stroke:#5E5E5E;stroke-width:2;stroke-linejoin:round;stroke-miterlimit:2;"/><clipPath id="_clipPath_zqZsxNEYpc4QS1DOmkSF2HsuUr665XHK"><path d="M 14.917 45 L 117.083 45 C 119.797 45 122 47.203 122 49.916 L 122 79.414 C 122 82.127 119.797 84.33 117.083 84.33 L 14.917 84.33 C 12.203 84.33 10 82.127 10 79.414 L 10 49.916 C 10 47.203 12.203 45 14.917 45 Z" style="stroke:none;fill:#FFFFFF;stroke-miterlimit:10;"/><path d="M 14.917 45 L 117.083 45 C 119.797 45 122 47.203 122 49.916 L 122 79.414 C 122 82.127 119.797 84.33 117.083 84.33 L 14.917 84.33 C 12.203 84.33 10 82.127 10 79.414 L 10 49.916 C 10 47.203 12.203 45 14.917 45 Z" style="fill:none;stroke:#5E5E5E;stroke-width:2;stroke-linejoin:round;stroke-miterlimit:2;"/></clipPath><g clip-path="url(#_clipPath_zqZsxNEYpc4QS1DOmkSF2HsuUr665XHK)"><path d="M 19.107 49 L 117.223 49 C 119.308 49 121 50.692 121 52.776 L 121 79.554 C 121 81.638 119.308 83.33 117.223 83.33 L 19.107 83.33 C 17.022 83.33 15.33 81.638 15.33 79.554 L 15.33 52.776 C 15.33 50.692 17.022 49 19.107 49 Z" style="stroke:none;fill:#A2CCF6;stroke-linejoin:round;stroke-miterlimit:2;"/><g clip-path="url(#_clipPath_8FfsBgf4KahCQuBNeGDtAYoe82hKVPLt)"><text transform="matrix(1,0,0,1,16,73.137)" style="font-family:'Comfortaa';font-weight:400;font-size:20px;font-style:normal;fill:#000000;stroke:none;">SERVICES</text></g><defs><clipPath id="_clipPath_8FfsBgf4KahCQuBNeGDtAYoe82hKVPLt"><rect x="0" y="0" width="104" height="22.3" transform="matrix(1,0,0,1,16,55.517)"/></clipPath></defs></g></g><g><path d="M 37.799 9.67 L 108.541 9.67 C 110.82 9.67 112.67 11.52 112.67 13.799 L 112.67 44.871 C 112.67 47.15 110.82 49 108.541 49 L 37.799 49 C 35.52 49 33.67 47.15 33.67 44.871 L 33.67 13.799 C 33.67 11.52 35.52 9.67 37.799 9.67 Z" style="stroke:none;fill:#FFFFFF;stroke-linejoin:round;stroke-miterlimit:2;"/><path d="M 37.799 9.67 L 108.541 9.67 C 110.82 9.67 112.67 11.52 112.67 13.799 L 112.67 44.871 C 112.67 47.15 110.82 49 108.541 49 L 37.799 49 C 35.52 49 33.67 47.15 33.67 44.871 L 33.67 13.799 C 33.67 11.52 35.52 9.67 37.799 9.67 Z" style="fill:none;stroke:#5E5E5E;stroke-width:2;stroke-linejoin:round;stroke-miterlimit:2;"/><clipPath id="_clipPath_pX3JwRpd84qWDCEIW4dhGfwS7pzKVvLj"><path d="M 37.799 9.67 L 108.541 9.67 C 110.82 9.67 112.67 11.52 112.67 13.799 L 112.67 44.871 C 112.67 47.15 110.82 49 108.541 49 L 37.799 49 C 35.52 49 33.67 47.15 33.67 44.871 L 33.67 13.799 C 33.67 11.52 35.52 9.67 37.799 9.67 Z" style="stroke:none;fill:#FFFFFF;stroke-linejoin:round;stroke-miterlimit:2;"/><path d="M 37.799 9.67 L 108.541 9.67 C 110.82 9.67 112.67 11.52 112.67 13.799 L 112.67 44.871 C 112.67 47.15 110.82 49 108.541 49 L 37.799 49 C 35.52 49 33.67 47.15 33.67 44.871 L 33.67 13.799 C 33.67 11.52 35.52 9.67 37.799 9.67 Z" style="fill:none;stroke:#5E5E5E;stroke-width:2;stroke-linejoin:round;stroke-miterlimit:2;"/></clipPath><g clip-path="url(#_clipPath_pX3JwRpd84qWDCEIW4dhGfwS7pzKVvLj)"><path d="M 42.079 13.67 L 108.721 13.67 C 110.901 13.67 112.67 15.439 112.67 17.618 L 112.67 44.052 C 112.67 46.231 110.901 48 108.721 48 L 42.079 48 C 39.899 48 38.13 46.231 38.13 44.052 L 38.13 17.618 C 38.13 15.439 39.899 13.67 42.079 13.67 Z" style="stroke:none;fill:#E6EFF8;stroke-linejoin:round;stroke-miterlimit:2;"/><g clip-path="url(#_clipPath_kuRTVBCqaHNQB9c7Vja0TlXcdxih56DG)"><text transform="matrix(1,0,0,1,48.167,37.803)" style="font-family:'Comfortaa';font-weight:400;font-size:20px;font-style:normal;fill:#000000;stroke:none;">OUR</text></g><defs><clipPath id="_clipPath_kuRTVBCqaHNQB9c7Vja0TlXcdxih56DG"><rect x="0" y="0" width="50" height="22.3" transform="matrix(1,0,0,1,48.167,20.183)"/></clipPath></defs></g></g></g></g></svg>