<?xml version="1.0" encoding="UTF-8" standalone="no"?>
<!-- Generator: Gravit.io -->
<svg xmlns="http://www.w3.org/2000/svg" xmlns:xlink="http://www.w3.org/1999/xlink" style="isolation:isolate" viewBox="0 0 40.9 40.89" width="40.9pt" height="40.89pt"><defs><clipPath id="_clipPath_O2Gcln7hWWkB3kuhAmHJ7UiD8X8OA0ih"><rect width="40.9" height="40.89"/></clipPath></defs><g clip-path="url(#_clipPath_O2Gcln7hWWkB3kuhAmHJ7UiD8X8OA0ih)"><path d=" M 13.162 0.633 C 9.879 1.956 7.461 4.997 7.461 7.804 C 7.461 8.651 7.166 9.393 6.64 9.869 C 5.369 11.019 4.667 12.676 4.594 14.699 C 4.548 15.968 4.205 17.024 3.497 18.073 C -1.027 24.774 3.181 33.718 11.422 34.919 C 14.52 35.37 16.055 35.142 16.055 34.23 C 16.055 33.419 15.562 33.25 12.273 32.927 C 4.797 32.192 1.095 23.542 6.015 18.302 C 6.722 17.549 6.852 17.021 6.746 15.332 C 6.626 13.431 6.721 13.166 8.015 11.793 C 9.094 10.65 9.414 9.983 9.414 8.885 C 9.414 2.325 18.868 -0.36 22.631 5.132 C 23.457 6.337 23.63 6.414 24.77 6.087 C 31.356 4.199 36.885 10.173 34.023 16.086 L 33.147 17.894 L 34.564 19.191 C 39.961 24.135 36.363 31.868 28.653 31.895 C 26.14 31.904 25.876 32.11 26.616 33.492 C 27.126 34.445 29.016 34.487 32.128 33.614 C 39.01 31.683 41.556 23.572 36.857 18.547 C 35.889 17.511 35.883 17.472 36.511 15.902 C 38.906 9.918 34.13 3.692 27.146 3.692 C 24.632 3.692 24.211 3.582 23.407 2.72 C 21.036 0.18 16.553 -0.734 13.162 0.633 Z  M 13.126 14.081 C 12.422 14.596 12.46 14.734 14.008 17.304 C 16.093 20.766 17.842 24.914 18.313 27.517 L 18.686 29.576 L 17.425 29.339 C 15.531 28.984 15.326 30.289 17.086 31.495 C 18.62 32.546 18.782 33.975 17.821 37.958 C 17.509 39.247 17.248 40.434 17.241 40.595 C 17.226 40.909 24.394 41.013 24.703 40.703 C 24.805 40.601 24.649 38.975 24.357 37.09 C 23.315 30.372 24.33 24.344 27.334 19.397 C 28.744 17.075 28.821 16.807 28.264 16.182 C 27.339 15.146 25.135 17.706 22.548 22.821 C 21.263 25.361 21.508 25.441 19.569 21.845 C 17.645 18.276 14.554 13.544 14.147 13.544 C 13.989 13.544 13.53 13.786 13.126 14.081 Z " fill-rule="evenodd" fill="#3E2723"/></g></svg>